<svg width="21" height="21" viewBox="0 0 21 21" fill="none" xmlns="http://www.w3.org/2000/svg">
<path d="M20.6876 4.31964C19.957 4.64339 19.1721 4.86214 18.347 4.96101C19.1984 4.45158 19.8353 3.6498 20.139 2.70526C19.3391 3.18038 18.4637 3.51481 17.5508 3.69401C16.9368 3.03852 16.1237 2.60405 15.2375 2.45805C14.3514 2.31206 13.4418 2.4627 12.6501 2.88661C11.8583 3.31051 11.2287 3.98395 10.8589 4.80238C10.4891 5.6208 10.3999 6.53842 10.605 7.41276C8.98424 7.33138 7.39868 6.91012 5.95126 6.1763C4.50383 5.44249 3.22687 4.41253 2.20326 3.15326C1.85326 3.75701 1.65201 4.45701 1.65201 5.20251C1.65162 5.87363 1.81689 6.53447 2.13315 7.1264C2.44942 7.71833 2.9069 8.22305 3.46501 8.59576C2.81775 8.57517 2.18477 8.40027 1.61876 8.08564V8.13814C1.6187 9.07941 1.94429 9.99172 2.5403 10.7203C3.1363 11.4488 3.96601 11.9487 4.88864 12.1351C4.2882 12.2976 3.65868 12.3216 3.04764 12.2051C3.30795 13.015 3.81501 13.7233 4.49783 14.2307C5.18066 14.7381 6.00506 15.0193 6.85564 15.0349C5.41174 16.1684 3.62854 16.7832 1.79289 16.7805C1.46772 16.7806 1.14283 16.7616 0.819885 16.7236C2.68318 17.9217 4.85218 18.5575 7.06739 18.555C14.5661 18.555 18.6655 12.3443 18.6655 6.95776C18.6655 6.78276 18.6611 6.60601 18.6533 6.43101C19.4506 5.85436 20.1389 5.1403 20.6859 4.32226L20.6876 4.31964Z" fill="white"/>
</svg>
