<svg width="23" height="23" viewBox="0 0 23 23" fill="none" xmlns="http://www.w3.org/2000/svg">
<path d="M20.6553 3.83339C20.5682 3.82442 20.4804 3.82442 20.3933 3.83339H2.50444C2.38979 3.83516 2.2759 3.85235 2.16583 3.8845L11.3978 13.0781L20.6553 3.83339Z" fill="white"/>
<path d="M21.6008 4.72119L12.2986 13.9851C12.0592 14.2231 11.7353 14.3566 11.3978 14.3566C11.0602 14.3566 10.7363 14.2231 10.4969 13.9851L1.27775 4.79147C1.24941 4.89563 1.23439 5.00297 1.23303 5.11091V17.8887C1.23303 18.2276 1.36765 18.5526 1.60728 18.7922C1.84691 19.0318 2.17192 19.1665 2.51081 19.1665H20.3997C20.7386 19.1665 21.0636 19.0318 21.3032 18.7922C21.5429 18.5526 21.6775 18.2276 21.6775 17.8887V5.11091C21.6724 4.9778 21.6465 4.84631 21.6008 4.72119V4.72119ZM3.38609 17.8887H2.49803V16.9751L7.14275 12.3687L8.04359 13.2695L3.38609 17.8887ZM20.3869 17.8887H19.4925L14.835 13.2695L15.7358 12.3687L20.3805 16.9751L20.3869 17.8887Z" fill="white"/>
</svg>
