<svg width="50" height="50" viewBox="0 0 50 50" fill="none" xmlns="http://www.w3.org/2000/svg">
<path d="M12.5 4.6875C12.5 4.2731 12.3354 3.87567 12.0424 3.58265C11.7493 3.28962 11.3519 3.125 10.9375 3.125C10.5231 3.125 10.1257 3.28962 9.83265 3.58265C9.53962 3.87567 9.375 4.2731 9.375 4.6875V14.0625C9.37463 15.8635 9.99654 17.6094 11.1355 19.0045C12.2744 20.3997 13.8604 21.3585 15.625 21.7188V45.3125C15.625 45.7269 15.7896 46.1243 16.0826 46.4174C16.3757 46.7104 16.7731 46.875 17.1875 46.875C17.6019 46.875 17.9993 46.7104 18.2924 46.4174C18.5854 46.1243 18.75 45.7269 18.75 45.3125V21.7188C20.5146 21.3585 22.1006 20.3997 23.2395 19.0045C24.3785 17.6094 25.0004 15.8635 25 14.0625V4.6875C25 4.2731 24.8354 3.87567 24.5424 3.58265C24.2493 3.28962 23.8519 3.125 23.4375 3.125C23.0231 3.125 22.6257 3.28962 22.3326 3.58265C22.0396 3.87567 21.875 4.2731 21.875 4.6875V14.0625C21.8755 15.0323 21.5752 15.9783 21.0155 16.7703C20.4558 17.5622 19.6643 18.1611 18.75 18.4844V4.6875C18.75 4.2731 18.5854 3.87567 18.2924 3.58265C17.9993 3.28962 17.6019 3.125 17.1875 3.125C16.7731 3.125 16.3757 3.28962 16.0826 3.58265C15.7896 3.87567 15.625 4.2731 15.625 4.6875V18.4844C14.7107 18.1611 13.9192 17.5622 13.3595 16.7703C12.7998 15.9783 12.4995 15.0323 12.5 14.0625V4.6875ZM34.375 45.3125V25H29.6875C29.2731 25 28.8757 24.8354 28.5826 24.5424C28.2896 24.2493 28.125 23.8519 28.125 23.4375V10.9375C28.125 8.86562 29.1437 6.92813 30.5344 5.53438C31.9281 4.14375 33.8656 3.125 35.9375 3.125C36.3519 3.125 36.7493 3.28962 37.0424 3.58265C37.3354 3.87567 37.5 4.2731 37.5 4.6875V45.3125C37.5 45.7269 37.3354 46.1243 37.0424 46.4174C36.7493 46.7104 36.3519 46.875 35.9375 46.875C35.5231 46.875 35.1257 46.7104 34.8326 46.4174C34.5396 46.1243 34.375 45.7269 34.375 45.3125Z" fill="black"/>
</svg>
