<svg width="54" height="54" viewBox="0 0 54 54" fill="none" xmlns="http://www.w3.org/2000/svg">
<path d="M13.5 29.25C8.5275 29.25 4.5 33.2775 4.5 38.25C4.5 43.2225 8.5275 47.25 13.5 47.25C18.4725 47.25 22.5 43.2225 22.5 38.25C22.5 33.2775 18.4725 29.25 13.5 29.25ZM13.5 42.75C11.025 42.75 9 40.725 9 38.25C9 35.775 11.025 33.75 13.5 33.75C15.975 33.75 18 35.775 18 38.25C18 40.725 15.975 42.75 13.5 42.75ZM13.5 6.75C8.5275 6.75 4.5 10.7775 4.5 15.75C4.5 20.7225 8.5275 24.75 13.5 24.75C18.4725 24.75 22.5 20.7225 22.5 15.75C22.5 10.7775 18.4725 6.75 13.5 6.75ZM27 11.25H49.5V15.75H27V11.25ZM27 42.75V38.25H49.5V42.75H27ZM27 24.75H49.5V29.25H27V24.75Z" fill="black"/>
</svg>
